<?xml version="1.0" encoding="utf-8"?>
<!-- Generator: Adobe Illustrator 26.0.0, SVG Export Plug-In . SVG Version: 6.00 Build 0)  -->
<svg version="1.1" id="레이어_1" xmlns="http://www.w3.org/2000/svg" xmlns:xlink="http://www.w3.org/1999/xlink" x="0px"
	 y="0px" viewBox="0 0 283.5 85" style="enable-background:new 0 0 283.5 85;" xml:space="preserve">
<style type="text/css">
	.st0{fill:url(#SVGID_1_);}
	.st1{fill:url(#SVGID_00000043423340617855313550000015629075005188653479_);}
	.st2{fill:url(#SVGID_00000165948176044914231420000016851186964901285040_);}
	.st3{fill:url(#SVGID_00000003091634881200621630000008906918789466951058_);}
	.st4{fill:url(#SVGID_00000026146122774264678580000010617010018437485189_);}
	.st5{fill:url(#SVGID_00000008830142059010255460000015350046373616191886_);}
	.st6{fill:url(#SVGID_00000029041581989572083740000001927942942140124293_);}
	.st7{fill:url(#SVGID_00000115497128728340763550000006877246075372800187_);}
	.st8{fill:url(#SVGID_00000130642385412905032100000001390195506667439751_);}
</style>
<g>
	
		<linearGradient id="SVGID_1_" gradientUnits="userSpaceOnUse" x1="20.0353" y1="9.318" x2="65.4391" y2="87.9596" gradientTransform="matrix(1 0 0 1 0 3.051758e-05)">
		<stop  offset="0" style="stop-color:#1769B4"/>
		<stop  offset="0.1748" style="stop-color:#4C74B9;stop-opacity:0.9476"/>
		<stop  offset="0.5542" style="stop-color:#9997C9;stop-opacity:0.8337"/>
		<stop  offset="1" style="stop-color:#E9C9E0;stop-opacity:0.7"/>
	</linearGradient>
	<path class="st0" d="M70.3,39.3c0-1.2-0.1-2.3-0.2-3.4c-0.1-0.7-0.1-1.4-0.2-2.1c-0.1-1.3-0.3-2.7-0.5-4c-0.2-1.4-0.5-2.9-0.8-4.3
		c-1.1-1-2.2-1.9-3.3-2.9c-1-0.8-2.1-1.7-3.2-2.5c-0.6-0.4-1.1-0.8-1.7-1.2c-0.9-0.6-1.9-1.2-2.9-1.9c-1.8-1.1-3.6-2.2-5.5-3.2
		c-1-0.5-2-1.1-3.1-1.5c-0.6-0.3-1.3-0.6-1.9-0.9c-1.2-0.5-2.5-1.1-3.7-1.5c-1.4-0.5-2.7-1-4.1-1.5c-1.4,0.4-2.8,0.9-4.1,1.5
		c-1.2,0.5-2.5,1-3.7,1.5c-0.6,0.3-1.3,0.6-1.9,0.9c-1,0.5-2.1,1-3.1,1.6c-1.9,1-3.7,2.1-5.5,3.2c-1,0.6-1.9,1.3-2.9,1.9l0,0
		c-0.6,0.4-1.2,0.8-1.7,1.2c-1.1,0.8-2.1,1.6-3.2,2.5s-2.2,1.9-3.3,2.9C9.5,27,9.2,28.4,9,29.9c-0.2,1.3-0.4,2.6-0.5,4
		c-0.1,0.7-0.1,1.4-0.2,2.1c-0.1,1.1-0.2,2.3-0.2,3.4c0,1-0.1,2.1-0.1,3.2c0,1.1,0,2.1,0.1,3.2c0,1.2,0.1,2.3,0.2,3.4
		c0,0.7,0.1,1.4,0.2,2.1c0.1,1.3,0.3,2.7,0.5,4c0.2,1.4,0.5,2.9,0.8,4.3c1.1,1,2.2,1.9,3.3,2.9c1,0.8,2.1,1.7,3.2,2.4
		c0.6,0.4,1.1,0.8,1.7,1.2c0.9,0.7,1.9,1.3,2.9,1.9c1.8,1.1,3.6,2.2,5.5,3.2c1,0.5,2,1.1,3.1,1.6c0.6,0.3,1.3,0.6,1.9,0.9
		c1.2,0.5,2.5,1.1,3.7,1.5c1.4,0.5,2.7,1,4.1,1.5c1.4-0.4,2.8-0.9,4.1-1.5c1.2-0.5,2.5-1,3.7-1.5c0.7-0.3,1.3-0.6,1.9-0.9
		c1-0.5,2.1-1,3.1-1.6c1.9-1,3.7-2.1,5.5-3.2c1-0.6,1.9-1.3,2.9-1.9c0.6-0.4,1.1-0.8,1.7-1.2c1.1-0.8,2.1-1.6,3.2-2.5
		s2.2-1.9,3.3-2.9c0.3-1.4,0.6-2.8,0.8-4.3c0.2-1.3,0.4-2.6,0.5-4c0.1-0.7,0.1-1.4,0.2-2.1c0.1-1.1,0.2-2.3,0.2-3.4
		c0-1,0.1-2.1,0.1-3.2C70.4,41.4,70.4,40.4,70.3,39.3z M64.2,43.3c0,0.9,0,1.9-0.1,2.8c-0.2,3.2-0.5,6.3-1,9.4
		c0,0.2-0.1,0.5-0.1,0.8c-0.2,0.2-0.4,0.3-0.6,0.5c-2.4,2-4.9,3.9-7.6,5.6c-0.8,0.5-1.6,1-2.4,1.5c-0.5,0.3-0.9,0.5-1.4,0.8
		c-0.8,0.5-1.6,0.9-2.5,1.3c-2.8,1.4-5.7,2.7-8.6,3.8c-0.2,0.1-0.5,0.2-0.7,0.3c-0.2-0.1-0.5-0.2-0.7-0.3c-3-1.1-5.8-2.3-8.6-3.8
		c-0.8-0.4-1.7-0.9-2.5-1.3c-0.5-0.2-0.9-0.5-1.4-0.8c-0.8-0.5-1.6-1-2.4-1.5c-2.6-1.7-5.2-3.6-7.6-5.6c-0.2-0.2-0.4-0.3-0.6-0.5
		c0-0.2-0.1-0.5-0.1-0.8c-0.5-3.1-0.9-6.2-1-9.4c0-0.9-0.1-1.8-0.1-2.8c0-0.3,0-0.5,0-0.8s0-0.5,0-0.8c0-0.9,0-1.9,0.1-2.8
		c0.1-3.2,0.5-6.3,1-9.4c0-0.2,0.1-0.5,0.1-0.8c0.2-0.2,0.4-0.3,0.6-0.5c2.4-2,4.9-3.9,7.6-5.6c0.8-0.5,1.6-1,2.4-1.5
		c0.4-0.3,0.9-0.5,1.3-0.8c0.8-0.5,1.6-0.9,2.5-1.3c2.8-1.4,5.7-2.7,8.6-3.8c0.2-0.1,0.5-0.2,0.7-0.3c0.2,0.1,0.5,0.2,0.7,0.3
		c3,1.1,5.8,2.3,8.6,3.8c0.8,0.4,1.7,0.9,2.5,1.3c0.5,0.3,0.9,0.5,1.3,0.8c0.8,0.5,1.6,1,2.4,1.5c2.6,1.7,5.2,3.6,7.6,5.6
		c0.2,0.2,0.4,0.3,0.6,0.5c0.1,0.2,0.1,0.5,0.1,0.8c0.5,3.1,0.9,6.2,1,9.4c0,0.9,0.1,1.8,0.1,2.8c0,0.3,0,0.5,0,0.8
		S64.2,43,64.2,43.3z"/>
	
		<linearGradient id="SVGID_00000053544106474823451800000017147915147528802214_" gradientUnits="userSpaceOnUse" x1="17.3644" y1="7.1986" x2="60.1336" y2="81.2772" gradientTransform="matrix(1 0 0 1 0 3.051758e-05)">
		<stop  offset="0" style="stop-color:#1769B4"/>
		<stop  offset="0.1836" style="stop-color:#4E75BA"/>
		<stop  offset="0.5856" style="stop-color:#9F9BCB"/>
		<stop  offset="1" style="stop-color:#E9C9E0"/>
	</linearGradient>
	<path style="fill:url(#SVGID_00000053544106474823451800000017147915147528802214_);" d="M49.3,54.7c-1.5,0.9-3,1.8-4.5,2.6
		c-0.5,0.2-1,0.5-1.4,0.7c-1.3,0.7-2.7,1.3-4.1,1.8c-1.4-0.6-2.7-1.2-4.1-1.8c-0.5-0.2-1-0.5-1.4-0.7c-1.5-0.8-3.1-1.7-4.5-2.6
		c-0.5-0.3-0.9-0.6-1.4-0.9c-1.2-0.8-2.4-1.7-3.6-2.6c-0.2-1.5-0.3-2.9-0.4-4.4c0-0.5-0.1-1.1-0.1-1.6c0-0.9,0-1.8,0-2.6
		s0-1.8,0-2.6c0-0.5,0.1-1.1,0.1-1.6c0.1-1.5,0.2-3,0.4-4.4c1.2-0.9,2.4-1.8,3.6-2.6c0.5-0.3,0.9-0.6,1.4-0.9c1.5-0.9,3-1.8,4.5-2.6
		c0.5-0.2,1-0.5,1.4-0.7c1.3-0.7,2.7-1.3,4.1-1.8c1.4,0.6,2.7,1.2,4.1,1.9c0.5,0.2,1,0.5,1.4,0.7c1.5,0.8,3.1,1.7,4.5,2.6
		c-0.5,0.6-1.1,1.1-1.6,1.7c-0.9,0.9-1.8,1.8-2.7,2.6c-0.7,0.6-1.4,1.2-2.2,1.8c-0.2,0.2-0.4,0.3-0.7,0.5c-0.9-0.5-1.9-1-2.8-1.5
		l0,0c-1,0.5-1.9,1-2.8,1.5c-0.2,0.1-0.4,0.2-0.6,0.3c-0.9,0.5-1.8,1.1-2.7,1.7c-0.1,1.1-0.1,2.1-0.1,3.2v0.7c0,1.1,0,2.2,0.1,3.2
		c0.9,0.6,1.8,1.2,2.7,1.7c0.2,0.1,0.4,0.2,0.6,0.3c0.9,0.5,1.9,1,2.8,1.5l0,0c1-0.5,1.9-1,2.8-1.5c0.2,0.2,0.5,0.3,0.7,0.5
		c0.7,0.6,1.5,1.2,2.2,1.8c1,0.8,1.9,1.7,2.8,2.6C48.2,53.5,48.7,54.1,49.3,54.7z"/>
</g>
<g>
	
		<linearGradient id="SVGID_00000105385147377707275140000005449773711253545088_" gradientUnits="userSpaceOnUse" x1="92.3196" y1="53.0442" x2="202.7478" y2="-138.223" gradientTransform="matrix(1 0 0 -1 0 85.0394)">
		<stop  offset="0" style="stop-color:#1769B4"/>
		<stop  offset="0.1748" style="stop-color:#4C74B9;stop-opacity:0.9476"/>
		<stop  offset="0.5542" style="stop-color:#9997C9;stop-opacity:0.8337"/>
		<stop  offset="1" style="stop-color:#E9C9E0;stop-opacity:0.7"/>
	</linearGradient>
	<path style="fill:url(#SVGID_00000105385147377707275140000005449773711253545088_);" d="M82.7,42.7c0-11.8,7.6-18.6,16.6-18.6
		c4.6,0,8.2,2.2,10.5,4.6l-3.7,4.6c-1.8-1.7-3.9-3-6.6-3c-5.4,0-9.4,4.6-9.4,12.3s3.6,12.4,9.3,12.4c3.1,0,5.4-1.4,7.3-3.5l3.7,4.4
		c-2.9,3.4-6.7,5.3-11.3,5.3C90,61.1,82.7,54.6,82.7,42.7z"/>
	
		<linearGradient id="SVGID_00000088844509233963051450000005338890885036678574_" gradientUnits="userSpaceOnUse" x1="100.7928" y1="81.1368" x2="222.2679" y2="-129.2643" gradientTransform="matrix(1 0 0 -1 0 85.0394)">
		<stop  offset="0" style="stop-color:#1769B4"/>
		<stop  offset="0.1748" style="stop-color:#4C74B9;stop-opacity:0.9476"/>
		<stop  offset="0.5542" style="stop-color:#9997C9;stop-opacity:0.8337"/>
		<stop  offset="1" style="stop-color:#E9C9E0;stop-opacity:0.7"/>
	</linearGradient>
	<path style="fill:url(#SVGID_00000088844509233963051450000005338890885036678574_);" d="M115.6,22h7.1v9.6l-0.4,5.1
		c2.2-2,4.8-4,8.4-4c5.8,0,8.3,4.1,8.3,10.8v16.8h-7.1V44.5c0-4.2-1.2-5.7-3.9-5.7c-2.2,0-3.6,1.1-5.5,3v18.5h-7.1V22H115.6z"/>
	
		<linearGradient id="SVGID_00000138538313206212617280000012485972192504282044_" gradientUnits="userSpaceOnUse" x1="121.16" y1="100.1647" x2="227.6205" y2="-84.2304" gradientTransform="matrix(1 0 0 -1 0 85.0394)">
		<stop  offset="0" style="stop-color:#1769B4"/>
		<stop  offset="0.1748" style="stop-color:#4C74B9;stop-opacity:0.9476"/>
		<stop  offset="0.5542" style="stop-color:#9997C9;stop-opacity:0.8337"/>
		<stop  offset="1" style="stop-color:#E9C9E0;stop-opacity:0.7"/>
	</linearGradient>
	<path style="fill:url(#SVGID_00000138538313206212617280000012485972192504282044_);" d="M144.7,46.9c0-8.7,6.1-14.2,12.5-14.2
		c7.5,0,11.3,5.4,11.3,12.9c0,1.3-0.1,2.6-0.4,3.2h-16.6c0.6,4.4,3.5,6.7,7.5,6.7c2.2,0,4.1-0.7,6-1.9l2.4,4.3c-2.6,1.8-6,3-9.4,3
		C150.6,61.1,144.7,55.8,144.7,46.9z M162.5,44.2c0-3.6-1.7-5.9-5.1-5.9c-2.9,0-5.3,2-5.9,5.9H162.5z"/>
	
		<linearGradient id="SVGID_00000029029416632349483070000006011156703181034889_" gradientUnits="userSpaceOnUse" x1="146.3796" y1="117.6955" x2="237.8639" y2="-40.7598" gradientTransform="matrix(1 0 0 -1 0 85.0394)">
		<stop  offset="0" style="stop-color:#1769B4"/>
		<stop  offset="0.1748" style="stop-color:#4C74B9;stop-opacity:0.9476"/>
		<stop  offset="0.5542" style="stop-color:#9997C9;stop-opacity:0.8337"/>
		<stop  offset="1" style="stop-color:#E9C9E0;stop-opacity:0.7"/>
	</linearGradient>
	<path style="fill:url(#SVGID_00000029029416632349483070000006011156703181034889_);" d="M174.4,33.5h5.8l0.5,3.6h0.1
		c2.3-2.4,4.8-4.3,8.3-4.3c3.9,0,6.1,1.7,7.5,4.7c2.4-2.6,5.1-4.7,8.5-4.7c5.8,0,8.4,4.1,8.4,10.8v16.8h-7.1V44.5
		c0-4.2-1.2-5.7-3.7-5.7c-1.6,0-3.2,1-5.2,3v18.5h-7V44.5c0-4.2-1.2-5.7-3.9-5.7c-1.6,0-3.2,1-5.2,3v18.5h-7.1V33.5z"/>
	
		<linearGradient id="SVGID_00000049211102913936492900000007491565549253383352_" gradientUnits="userSpaceOnUse" x1="116.5947" y1="229.6619" x2="285.5" y2="-62.8907" gradientTransform="matrix(1 0 0 -1 0 85.0394)">
		<stop  offset="0" style="stop-color:#1769B4"/>
		<stop  offset="0.1748" style="stop-color:#4C74B9;stop-opacity:0.9476"/>
		<stop  offset="0.5542" style="stop-color:#9997C9;stop-opacity:0.8337"/>
		<stop  offset="1" style="stop-color:#E9C9E0;stop-opacity:0.7"/>
	</linearGradient>
	<path style="fill:url(#SVGID_00000049211102913936492900000007491565549253383352_);" d="M220.1,25.3c0-2.3,1.7-3.8,4.1-3.8
		c2.4,0,4.1,1.6,4.1,3.8c0,2.4-1.7,3.8-4.1,3.8S220.1,27.6,220.1,25.3z M220.7,33.5h7.1v26.9h-7.1V33.5z"/>
	
		<linearGradient id="SVGID_00000171688446696245228350000009255003699289622719_" gradientUnits="userSpaceOnUse" x1="130.2411" y1="234.1174" x2="284.9766" y2="-33.8923" gradientTransform="matrix(1 0 0 -1 0 85.0394)">
		<stop  offset="0" style="stop-color:#1769B4"/>
		<stop  offset="0.1748" style="stop-color:#4C74B9;stop-opacity:0.9476"/>
		<stop  offset="0.5542" style="stop-color:#9997C9;stop-opacity:0.8337"/>
		<stop  offset="1" style="stop-color:#E9C9E0;stop-opacity:0.7"/>
	</linearGradient>
	<path style="fill:url(#SVGID_00000171688446696245228350000009255003699289622719_);" d="M235.4,52.8V22h7.1v31.1
		c0,1.7,0.7,2.2,1.4,2.2c0.2,0,0.5,0,1-0.1l0.8,5.3c-0.8,0.4-1.9,0.6-3.6,0.6C237.1,61.1,235.4,57.9,235.4,52.8z"/>
	
		<linearGradient id="SVGID_00000163769085696020077220000008260626951870325406_" gradientUnits="userSpaceOnUse" x1="163.0713" y1="210.2571" x2="282.2032" y2="3.9147" gradientTransform="matrix(1 0 0 -1 0 85.0394)">
		<stop  offset="0" style="stop-color:#1769B4"/>
		<stop  offset="0.1748" style="stop-color:#4C74B9;stop-opacity:0.9476"/>
		<stop  offset="0.5542" style="stop-color:#9997C9;stop-opacity:0.8337"/>
		<stop  offset="1" style="stop-color:#E9C9E0;stop-opacity:0.7"/>
	</linearGradient>
	<path style="fill:url(#SVGID_00000163769085696020077220000008260626951870325406_);" d="M250.6,22h7v23.1h0.2l9.1-11.5h7.7
		l-9.3,11.1l10.1,15.9h-7.7l-6.5-11.2l-3.9,4.3v6.9h-7V22H250.6z"/>
</g>
</svg>
