<?xml version="1.0" encoding="utf-8"?>
<!-- Generator: Adobe Illustrator 26.0.0, SVG Export Plug-In . SVG Version: 6.00 Build 0)  -->
<svg version="1.1" id="레이어_1" xmlns="http://www.w3.org/2000/svg" xmlns:xlink="http://www.w3.org/1999/xlink" x="0px"
	 y="0px" viewBox="0 0 85.04 85.04" style="enable-background:new 0 0 85.04 85.04;" xml:space="preserve">
<style type="text/css">
	.st0{fill:none;stroke:#000000;stroke-width:0.25;stroke-miterlimit:10;}
	.st1{fill:#F9C898;stroke:#F29217;stroke-width:0.1;stroke-miterlimit:10;}
	.st2{fill:none;stroke:#F29217;stroke-width:0.1;stroke-miterlimit:10;}
	.st3{fill:#326291;stroke:#29499D;stroke-width:0.1;stroke-miterlimit:10;}
	.st4{fill:none;stroke:#284592;stroke-width:0.1;stroke-miterlimit:10;}
	.st5{fill:#95C595;stroke:#009A3E;stroke-width:0.1;stroke-miterlimit:10;}
	.st6{fill:#F09495;stroke:#DD3E58;stroke-width:0.1;stroke-miterlimit:10;}
	.st7{fill:#DD6159;stroke:#DD3E58;stroke-width:0.1;stroke-miterlimit:10;}
	.st8{fill:#FFFFFF;}
	.st9{fill:none;stroke:#595757;stroke-width:0.05;stroke-miterlimit:10;}
	.st10{fill:none;stroke:#595757;stroke-width:0.05;stroke-miterlimit:10;stroke-dasharray:0.5032,0.5032;}
	.st11{fill:#F9C898;stroke:#595757;stroke-width:0.05;stroke-miterlimit:10;}
	.st12{fill:none;stroke:#595757;stroke-width:0.05;stroke-miterlimit:10;stroke-dasharray:0.5065,0.5065;}
	.st13{fill:none;stroke:#595757;stroke-width:0.05;stroke-miterlimit:10;stroke-dasharray:0.5037,0.5037;}
	.st14{fill:#326291;stroke:#595757;stroke-width:0.05;stroke-miterlimit:10;}
	.st15{fill:none;stroke:#F09495;stroke-width:0.25;stroke-miterlimit:10;}
	.st16{font-family:'NotoSansKR-Regular-KSCpc-EUC-H';}
	.st17{font-size:1.8196px;}
</style>
<g>
	<line class="st0" x1="30.7" y1="66.49" x2="82.28" y2="66.49"/>
	<line class="st0" x1="30.7" y1="66.49" x2="30.7" y2="14.91"/>
	<path class="st1" d="M33.66,18.55c0,0,9.99,7.94,25.67,7.94c-12.83,0.58-17.71,13.76-25.67,9.52"/>
	<line class="st2" x1="59.32" y1="26.48" x2="82.28" y2="26.48"/>
	<path class="st3" d="M33.66,29.91c0,0,7.58,7.94,19.48,7.94c-9.74,0.58-13.44,13.76-19.48,9.52"/>
	<line class="st4" x1="53.14" y1="37.85" x2="82.28" y2="37.85"/>
	<path class="st5" d="M41.52,35.23c-4.98-2.31-7.86-5.32-7.86-5.32v6.1C36.5,37.52,38.96,36.8,41.52,35.23z"/>
	<path class="st6" d="M33.76,55.56c0,0,1.51,2.03,6.29,2.03c-0.63,1.33-4.92,4.58-6.29,4.7"/>
	<line class="st7" x1="40.04" y1="57.59" x2="82.28" y2="57.59"/>
	<rect x="31.74" y="14.08" class="st8" width="2.5" height="49.59"/>
	<g>
		<g>
			<line class="st9" x1="45.07" y1="24.23" x2="45.07" y2="24.48"/>
			<line class="st10" x1="45.07" y1="24.98" x2="45.07" y2="65.99"/>
			<line class="st9" x1="45.07" y1="66.24" x2="45.07" y2="66.49"/>
		</g>
	</g>
	<rect x="2.76" y="24.22" class="st11" width="15.79" height="8.53"/>
	<g>
		<g>
			<line class="st9" x1="45.07" y1="24.22" x2="44.82" y2="24.22"/>
			<line class="st12" x1="44.31" y1="24.22" x2="22.28" y2="24.22"/>
			<line class="st9" x1="22.03" y1="24.22" x2="21.78" y2="24.22"/>
		</g>
	</g>
	<g>
		<g>
			<line class="st9" x1="45.07" y1="32.76" x2="44.82" y2="32.76"/>
			<line class="st12" x1="44.31" y1="32.76" x2="22.28" y2="32.76"/>
			<line class="st9" x1="22.03" y1="32.76" x2="21.78" y2="32.76"/>
		</g>
	</g>
	<g>
		<g>
			<line class="st9" x1="45.07" y1="36.6" x2="44.82" y2="36.6"/>
			<line class="st12" x1="44.31" y1="36.6" x2="22.28" y2="36.6"/>
			<line class="st9" x1="22.03" y1="36.6" x2="21.78" y2="36.6"/>
		</g>
	</g>
	<g>
		<g>
			<line class="st9" x1="45.07" y1="41.55" x2="44.82" y2="41.55"/>
			<line class="st12" x1="44.31" y1="41.55" x2="22.28" y2="41.55"/>
			<line class="st9" x1="22.03" y1="41.55" x2="21.78" y2="41.55"/>
		</g>
	</g>
	<g>
		<g>
			<line class="st9" x1="45.07" y1="57.59" x2="44.82" y2="57.59"/>
			<line class="st13" x1="44.32" y1="57.59" x2="3.26" y2="57.59"/>
			<line class="st9" x1="3.01" y1="57.59" x2="2.76" y2="57.59"/>
		</g>
	</g>
	<rect x="2.76" y="36.6" class="st14" width="15.79" height="4.95"/>
	<line class="st15" x1="18.55" y1="57.59" x2="2.76" y2="57.59"/>
	<text transform="matrix(0.9 0 0 1 20.0081 29.2403)" class="st16 st17">에너지 밴드</text>
	<text transform="matrix(0.9 0 0 1 20.0081 39.8595)" class="st16 st17">에너지 밴드</text>
	<text transform="matrix(0.9 0 0 1 20.0081 35.5011)" class="st16 st17">에너지 밴드 갭</text>
	<text transform="matrix(0.9 0 0 1 44.2254 69.0553)" class="st16 st17">↑평형 원자간 거리</text>
	<text transform="matrix(0.9 0 0 1 71.7908 69.0562)" class="st16 st17">원자 간 거리 →</text>
	<text transform="matrix(0.9 0 0 1 30.6977 16.4217)" class="st16 st17">↑에너지</text>
</g>
</svg>
